HIERARCHY
ROOT Hips
{
    OFFSET 0.000000 0.000000 0.000000
    CHANNELS 6 Xposition Yposition Zposition Zrotation Xrotation Yrotation
        JOINT Chest
        {
            OFFSET -0.000000 31.986500 -0.000000
            CHANNELS 3 Zrotation Xrotation Yrotation
            JOINT Neck
            {
                OFFSET -0.000000 24.131615 0.000000
                CHANNELS 3 Zrotation Xrotation Yrotation
                JOINT Head
                {
                    OFFSET -0.000000 10.450000 0.000000
                    CHANNELS 3 Zrotation Xrotation Yrotation
                    End Site
                    {
                        OFFSET -0.000000 16.150003 0.000000
                    }
                }
            }
            JOINT LeftCollar
            {
                OFFSET -0.000000 24.131615 0.000000
                CHANNELS 3 Zrotation Xrotation Yrotation
                JOINT LeftShoulder
                {
                    OFFSET 20.000000 -0.000000 0.000000
                    CHANNELS 3 Zrotation Xrotation Yrotation
                    JOINT LeftElbow
                    {
                        OFFSET 22.686384 0.000000 0.000000
                        CHANNELS 3 Zrotation Xrotation Yrotation
                        JOINT LeftWrist
                        {
                            OFFSET 24.813133 0.000000 0.000000
                            CHANNELS 3 Zrotation Xrotation Yrotation
                            End Site
                            {
                                OFFSET 0.000000 -14.250000 0.000000
                            }
                        }
                    }
                }
            }
            JOINT RightCollar
            {
                OFFSET -0.000000 24.131615 0.000000
                CHANNELS 3 Zrotation Xrotation Yrotation
                JOINT RightShoulder
                {
                    OFFSET -20.000000 0.000000 0.000000
                    CHANNELS 3 Zrotation Xrotation Yrotation
                    JOINT RightElbow
                    {
                        OFFSET -22.686384 0.000000 0.000000
                        CHANNELS 3 Zrotation Xrotation Yrotation
                        JOINT RightWrist
                        {
                            OFFSET -24.813133 0.000000 0.000000
                            CHANNELS 3 Zrotation Xrotation Yrotation
                            End Site
                            {
                                OFFSET -0.000000 -14.250000 0.000000
                            }
                        }
                    }
                }
            }
        }
    JOINT LeftHip
    {
        OFFSET 11.400001 0.000000 0.000000
        CHANNELS 3 Zrotation Xrotation Yrotation
        JOINT LeftKnee
        {
            OFFSET -0.000000 -38.315727 0.000000
            CHANNELS 3 Zrotation Xrotation Yrotation
            JOINT LeftAnkle
            {
                OFFSET -0.000000 -38.060658 0.000000
                CHANNELS 3 Zrotation Xrotation Yrotation
                End Site
                {
                    OFFSET -0.000000 -4.750000 16.150003
                }
            }
        }
    }
    JOINT RightHip
    {
        OFFSET -11.400001 0.000000 0.000000
        CHANNELS 3 Zrotation Xrotation Yrotation
        JOINT RightKnee
        {
            OFFSET -0.000000 -38.315727 0.000000
            CHANNELS 3 Zrotation Xrotation Yrotation
            JOINT RightAnkle
            {
                OFFSET -0.000000 -38.060658 0.000000
                CHANNELS 3 Zrotation Xrotation Yrotation
                End Site
                {
                    OFFSET -0.000000 -4.750000 16.150003
                }
            }
        }
    }
}
MOTION
Frames:    9
Frame Time:    0.010000
41.016968    85.130669    -29.634768    -5.101471    2.397323    -56.376328    0.425666    14.253805    17.902939    -1.495472    -0.278485    -6.377030    9.878469    8.841866    -7.138139    -23.039274    -1.123773    5.370106    -22.719046    44.025215    -38.729237    27.185785    -34.467319    -103.972115    94.208466    4.343039    51.242416    30.824339    3.288618    12.605651    15.618026    47.900154    37.196968    -6.179443    -1.279080    21.986654    -99.198845    19.929663    -0.974852    9.583833    -6.452146    -2.869947    2.244736    14.165270    -9.081121    -6.469448    -4.425211    28.054422    7.146636    7.201146    -7.551926    -7.363542    11.860636    -1.804124    8.790625    -16.711384    -12.129726    
41.010811    85.096405    -29.984749    -5.110809    2.445160    -57.002983    0.625806    14.323377    17.716532    -1.494027    -0.097827    -6.006662    9.438897    8.885007    -6.739255    -23.019505    -1.077497    5.316847    -22.708824    43.858849    -38.714458    27.293633    -34.494358    -103.826195    94.356934    4.611546    50.887241    30.539059    3.429301    13.219519    19.346991    45.265621    32.883022    -6.574818    -1.347708    21.864082    -99.681343    20.222422    -3.390764    9.918138    -6.406203    -2.691230    2.143309    14.171723    -8.651686    -6.677419    -4.423531    28.031019    7.436080    7.503889    -7.194242    -7.502385    11.012305    -1.407660    8.498929    -16.523779    -12.393569    
41.007519    85.065109    -30.325428    -5.120557    2.498348    -57.606018    0.816069    14.373713    17.465895    -1.514315    0.139201    -5.619296    9.024868    8.897199    -6.323284    -23.008799    -1.116238    5.299326    -22.687639    43.765850    -38.688717    27.504665    -34.711914    -103.571075    94.276703    4.682339    50.313519    30.224617    3.554292    13.790925    22.372143    42.566948    29.223116    -6.962050    -1.415226    21.881908    -99.986275    20.439461    -6.032677    10.250291    -6.349997    -2.575354    2.027073    14.156220    -8.192542    -6.873282    -4.407377    28.026508    7.695376    7.823176    -6.784232    -7.583058    10.155367    -1.079973    8.222418    -16.294781    -12.644823    
41.007347    85.037575    -30.655342    -5.131674    2.558227    -58.185455    0.991140    14.396424    17.139872    -1.559616    0.438340    -5.208838    8.635400    8.878252    -5.885626    -23.019707    -1.097384    5.329046    -22.715958    43.580673    -38.539055    27.674631    -34.775551    -103.419319    94.369347    4.883545    50.101154    29.890617    3.662136    14.320859    24.811617    39.898605    26.107912    -7.334385    -1.491311    22.007118    -100.114899    20.575209    -8.849862    10.579774    -6.286027    -2.500212    1.900058    14.121548    -7.720650    -7.052770    -4.379496    28.042828    7.922204    8.150359    -6.342034    -7.606353    9.303554    -0.793172    7.958007    -16.033886    -12.892730    
41.009857    85.014389    -30.973742    -5.145640    2.625045    -58.742275    1.150640    14.387313    16.739222    -1.637294    0.801365    -4.771025    8.269664    8.824447    -5.421002    -23.043365    -1.127709    5.416459    -22.774881    43.418442    -38.339409    27.861109    -34.925343    -103.238205    94.323410    4.952960    49.695030    29.542780    3.755889    14.812249    26.771786    37.328846    23.436245    -7.701473    -1.563398    22.210798    -100.057938    20.625582    -11.810832    10.906900    -6.216663    -2.438760    1.766667    14.072917    -7.253013    -7.213068    -4.342568    28.076250    8.117635    8.476742    -5.887538    -7.577969    8.471404    -0.522418    7.705000    -15.751600    -13.143383    
41.013882    84.995857    -31.280407    -5.164909    2.697672    -59.277542    1.298774    14.348237    16.277359    -1.742211    1.228921    -4.308165    7.916357    8.721725    -4.930545    -23.084137    -1.159730    5.556735    -22.896553    43.229420    -38.033550    28.011177    -35.001289    -103.116508    94.341698    5.063988    49.402401    29.182156    3.835440    15.259098    28.336357    34.903561    21.131794    -8.071489    -1.647765    22.469887    -99.844162    20.596035    -14.867325    11.232695    -6.143188    -2.364215    1.631079    14.017409    -6.805142    -7.353597    -4.299072    28.118488    8.285587    8.795160    -5.438670    -7.507149    7.673545    -0.249068    7.463819    -15.459144    -13.399053    
41.017757    84.982040    -31.575441    -5.192243    2.773688    -59.791870    1.442909    14.286878    15.774925    -1.864176    1.719080    -3.826340    7.561396    8.549581    -4.419366    -23.143463    -1.165593    5.735321    -23.065403    43.000057    -37.656116    28.107162    -35.023312    -103.049500    94.375633    5.178985    49.090034    28.808392    3.892637    15.651443    29.569523    32.657116    19.136091    -8.462392    -1.742795    22.768202    -99.481537    20.497261    -17.999613    11.558316    -6.066031    -2.255154    1.496275    13.963290    -6.389602    -7.476324    -4.251297    28.159603    8.431642    9.100570    -5.008834    -7.405243    6.923261    0.036058    7.235537    -15.167121    -13.657449    
41.019745    84.972664    -31.859144    -5.230045    2.849820    -60.285233    1.589609    14.214628    15.252769    -1.988319    2.267496    -3.334893    7.189980    8.286157    -3.894520    -23.211676    -1.200682    5.931012    -23.280464    42.800251    -37.231621    28.204865    -35.089390    -102.963219    94.337769    5.228209    48.641369    28.418953    3.929419    15.977125    30.525269    30.599539    17.403021    -8.874640    -1.852666    23.091948    -98.999352    20.343409    -21.164293    11.884515    -5.985330    -2.099031    1.363753    13.918846    -6.014353    -7.585392    -4.200945    28.190102    8.561954    9.389617    -4.605138    -7.284296    6.231694    0.330875    7.021499    -14.884552    -13.911910    
41.018570    84.967163    -32.131893    -5.279014    2.922360    -60.756401    1.741281    14.143353    14.727651    -2.097488    2.867319    -2.843262    6.790069    7.911782    -3.365972    -23.281775    -1.256805    6.119339    -23.561522    42.628643    -36.734631    28.285803    -35.143387    -102.887466    94.321899    5.293062    48.221855    28.014097    3.946273    16.223755    31.238415    28.733801    15.905131    -9.314412    -1.977004    23.429752    -98.409752    20.153112    -24.330103    12.210159    -5.902648    -1.894642    1.234371    13.892112    -5.681468    -7.686770    -4.149489    28.202385    8.681941    9.658706    -4.229773    -7.156461    5.608993    0.626962    6.823384    -14.619734    -14.154762    
